<?xml version="1.0" standalone="no"?>
<!DOCTYPE svg PUBLIC "-//W3C//DTD SVG 20010904//EN"
 "http://www.w3.org/TR/2001/REC-SVG-20010904/DTD/svg10.dtd">
<svg version="1.0" xmlns="http://www.w3.org/2000/svg"
 width="1024.000000pt" height="1024.000000pt" viewBox="0 0 1024.000000 1024.000000"
 preserveAspectRatio="xMidYMid meet">
<metadata>
Created by potrace 1.16, written by Peter Selinger 2001-2019
</metadata>
<g transform="translate(0.000000,1024.000000) scale(0.100000,-0.100000)"
fill="#000000" stroke="none">
<path d="M4540 7775 c-752 -92 -1364 -542 -1710 -1259 -118 -243 -195 -524
-221 -808 -15 -162 -6 -528 15 -663 22 -133 66 -315 110 -448 38 -115 146
-346 217 -462 114 -187 325 -439 493 -587 480 -425 1024 -642 1669 -665 l177
-6 0 991 0 992 303 -306 c166 -168 306 -312 310 -320 10 -18 44 -18 54 0 4 7
118 130 252 272 135 143 272 288 306 324 33 36 130 139 216 230 85 91 174 185
197 210 l41 45 1 -1426 0 -1426 318 1 317 1 3 1908 2 1907 -274 0 -274 0 -104
-109 c-92 -97 -1051 -1086 -1052 -1086 -1 0 -131 134 -290 298 l-289 297 -488
0 -489 0 0 -320 0 -320 160 0 160 0 0 -690 c0 -680 0 -690 -20 -690 -36 0
-254 77 -338 119 -182 91 -317 187 -469 335 -211 203 -376 463 -462 727 -70
216 -96 406 -88 650 5 175 18 265 56 416 103 400 359 767 686 981 169 111 356
184 553 217 129 22 359 17 472 -10 200 -47 388 -156 545 -314 38 -39 76 -71
83 -71 15 0 80 55 333 283 90 82 165 155 167 163 4 17 -85 112 -193 205 -374
320 -928 478 -1455 414z m396 -5 c382 -31 763 -178 1024 -394 62 -51 220 -207
220 -216 0 -10 -477 -440 -487 -440 -4 0 -46 37 -93 83 -146 141 -328 247
-516 299 -69 19 -106 22 -284 22 -192 1 -212 -1 -314 -27 -121 -30 -261 -83
-346 -130 -453 -250 -768 -723 -845 -1267 -29 -209 -16 -513 31 -710 107 -444
370 -822 759 -1092 145 -101 412 -221 563 -253 l32 -7 0 706 0 706 -160 0
-160 0 2 304 3 305 480 2 479 3 291 -298 292 -298 114 118 c351 364 452 468
738 762 l315 322 258 0 258 0 2 -1895 3 -1895 -307 0 -308 0 0 1433 -1 1432
-31 -35 c-42 -47 -393 -422 -594 -635 -155 -164 -250 -265 -366 -389 l-55 -59
-326 329 -326 329 -1 -997 0 -998 -67 0 c-280 0 -608 55 -883 146 -123 41
-388 168 -510 243 -387 241 -743 624 -942 1016 -130 256 -194 463 -250 810
-20 121 -16 581 5 713 58 357 153 628 315 894 380 627 981 1007 1672 1057 157
12 176 12 316 1z"/>
</g>
</svg>
