<?xml version="1.0" standalone="no"?>
<!DOCTYPE svg PUBLIC "-//W3C//DTD SVG 20010904//EN"
 "http://www.w3.org/TR/2001/REC-SVG-20010904/DTD/svg10.dtd">
<svg version="1.0" xmlns="http://www.w3.org/2000/svg"
 width="1024.000000pt" height="1024.000000pt" viewBox="0 0 1024.000000 1024.000000"
 preserveAspectRatio="xMidYMid meet">
<metadata>
Created by potrace 1.16, written by Peter Selinger 2001-2019
</metadata>
<g transform="translate(0.000000,1024.000000) scale(0.100000,-0.100000)"
fill="#000000" stroke="none">
<path d="M0 5120 l0 -5120 5120 0 5120 0 0 5120 0 5120 -5120 0 -5120 0 0
-5120z m5168 2833 l82 -6 0 -348 0 -349 -128 0 c-619 0 -1132 -258 -1517 -764
-234 -307 -373 -693 -394 -1095 -34 -652 162 -1195 589 -1635 217 -224 472
-384 774 -486 l116 -39 0 829 0 829 -77 -2 -78 -2 -3 359 -2 359 380 -5 381
-6 52 -37 c92 -65 286 -195 292 -195 3 0 61 44 128 98 122 98 449 354 647 506
58 44 157 121 221 171 233 181 556 426 623 472 l68 48 30 -35 c39 -46 189
-352 228 -465 46 -133 96 -335 114 -460 33 -234 36 -380 36 -1790 l0 -1412
-332 -7 c-182 -3 -334 -4 -337 0 -3 3 -9 677 -12 1497 -4 1049 -9 1505 -17
1537 -6 25 -11 48 -12 53 0 4 -39 -26 -87 -66 -49 -40 -137 -111 -198 -157
-142 -108 -386 -299 -595 -465 -91 -72 -210 -166 -265 -210 -55 -43 -126 -104
-158 -134 -68 -64 -45 -70 -214 55 -61 46 -113 84 -115 84 -2 0 -3 -474 -2
-1053 0 -578 -2 -1077 -5 -1107 l-6 -55 -205 -3 c-223 -3 -295 4 -500 49 -681
150 -1217 500 -1621 1059 -278 384 -435 787 -511 1315 -20 137 -16 597 5 755
45 320 124 582 262 865 317 652 919 1163 1600 1359 286 82 515 109 763 89z"/>
</g>
</svg>
